<svg width="235" height="248" viewBox="0 0 235 248" fill="none" xmlns="http://www.w3.org/2000/svg">
<path d="M189.531 110.655L172.581 247.699H169.216L186.166 110.655H189.531Z" fill="#D3D2FF"/>
<path d="M116.706 162.635L106.446 247.698H103.081L113.341 162.635H116.706Z" fill="#D3D2FF"/>
<path d="M71.3649 162.634L70.2098 172.201L61.1049 247.698H57.7389L66.8909 171.827L67.9989 162.634H71.3649Z" fill="#D3D2FF"/>
<path d="M116.706 247.698H113.341L111.922 235.933L110.24 221.984L104.705 176.102L103.081 162.634H106.447L108.117 176.487L111.922 208.033L113.604 221.982L116.706 247.698Z" fill="#D3D2FF"/>
<path d="M162.048 247.698H158.682L150.719 181.674H150.718L148.422 162.634H151.788L154.129 182.041L162.048 247.698Z" fill="#D3D2FF"/>
<path d="M71.5278 105.772H68.1628V157.227H71.5278V105.772Z" fill="#D3D2FF"/>
<path d="M117.256 105.772H113.891V157.227H117.256V105.772Z" fill="#D3D2FF"/>
<path d="M153.2 157.226H106.965C108.458 157.226 109.669 158.437 109.669 159.93C109.669 161.423 108.458 162.634 106.965 162.634H153.2C154.693 162.634 155.904 161.423 155.904 159.93C155.904 158.437 154.694 157.226 153.2 157.226Z" fill="#D3D2FF"/>
<path d="M109.669 159.93C109.669 158.437 108.458 157.226 106.965 157.226H71.5999H67.0449C65.5509 157.226 64.3408 158.437 64.3408 159.93C64.3408 161.423 65.5519 162.634 67.0449 162.634H71.5999H106.965C108.459 162.635 109.669 161.424 109.669 159.93Z" fill="#86A2E2"/>
<path d="M118.662 105.772H66.7579C63.9349 105.772 61.6459 103.483 61.6459 100.66V72.162C61.6459 69.339 63.9349 67.05 66.7579 67.05H118.662C121.485 67.05 123.774 69.339 123.774 72.162V100.66C123.774 103.483 121.485 105.772 118.662 105.772Z" fill="#D3D2FF"/>
<path d="M71.3649 162.634L70.2109 172.201C68.9959 172.064 67.8839 171.939 66.8909 171.827L67.9999 162.634H71.3649Z" fill="#AEC3FF"/>
<path d="M106.447 162.634L108.118 176.486C106.975 176.357 105.837 176.229 104.706 176.101L103.082 162.633H106.447V162.634Z" fill="#AEC3FF"/>
<path d="M154.129 182.041C153.043 181.925 151.905 181.802 150.72 181.674H150.719L148.423 162.634H151.789L154.129 182.041Z" fill="#AEC3FF"/>
<path d="M68.1628 105.772H71.5289V112.878L68.1628 112.506V105.772Z" fill="#AEC3FF"/>
<path d="M117.255 105.772V117.94L113.891 117.568V105.772H117.255Z" fill="#AEC3FF"/>
<path d="M123.837 15.474C119.883 22.015 107.798 31.427 89.8279 25.682V25.683C89.7719 25.675 89.7159 25.67 89.6569 25.67C85.3819 25.67 85.0839 37.559 92.2779 38.246C92.3839 38.595 92.4929 38.927 92.6039 39.237V58.571H108.831V51.056C109.962 51.375 111.046 51.558 112.039 51.558C118.751 51.558 130.419 41.204 130.684 24.893C128.888 24.488 123.837 20.037 123.837 15.474Z" fill="#FCD0B7"/>
<path d="M134.093 20.149C134.093 9.40603 124.618 0.702026 110.41 0.702026C98.6019 0.702026 94.5438 7.21803 94.5438 7.21803C94.5438 7.21803 83.3829 9.63002 83.3829 23.499C83.3829 36.391 83.3829 58.572 83.3829 58.572H101.722H102.657H116.201H130.924V29.688C132.088 28.26 134.093 25.083 134.093 20.149ZM112.04 51.558C111.047 51.558 109.963 51.375 108.832 51.056V58.571H92.6049V39.237C92.4939 38.927 92.3849 38.595 92.2789 38.246C85.0849 37.559 85.3828 25.67 89.6578 25.67C89.7158 25.67 89.7729 25.675 89.8289 25.683V25.682C107.799 31.427 119.884 22.014 123.838 15.474C123.838 20.038 128.889 24.488 130.686 24.894C130.419 41.204 118.751 51.558 112.04 51.558Z" fill="#311643"/>
<path d="M79.8949 57.1461L92.6049 51.2581L99.5789 51.442L108.832 51.8781L122.128 55.916V72.8811H79.8949V57.1461Z" fill="#FCD0B7"/>
<path d="M122.128 73.9201V55.9161L108.831 51.8781V51.0561C105.071 49.9951 100.797 47.4251 97.6578 45.0271L122.128 73.9201Z" fill="#F9AFAB"/>
<path d="M100.165 38.6641C102.61 38.6641 104.592 36.682 104.592 34.2371C104.592 31.7921 102.61 29.8101 100.165 29.8101C97.72 29.8101 95.7379 31.7921 95.7379 34.2371C95.7379 36.682 97.72 38.6641 100.165 38.6641Z" fill="#F49795"/>
<path d="M130.115 30.562C129.554 33.535 128.613 36.246 127.425 38.658C125.084 38.542 123.222 36.607 123.222 34.237C123.222 31.792 125.204 29.811 127.649 29.811C128.561 29.811 129.41 30.087 130.115 30.562Z" fill="#F49795"/>
<path d="M122.627 20.774C119.395 20.774 116.726 23.2311 116.39 26.3761C114.633 25.5491 113.082 25.997 112.263 26.373C111.925 23.23 109.258 20.774 106.027 20.774C102.568 20.774 99.7539 23.588 99.7539 27.047C99.7539 30.506 102.568 33.3201 106.027 33.3201C109.409 33.3201 112.173 30.63 112.294 27.277C112.815 26.977 114.47 26.213 116.36 27.284C116.485 30.633 119.248 33.3201 122.627 33.3201C126.086 33.3201 128.9 30.506 128.9 27.047C128.901 23.588 126.087 20.774 122.627 20.774ZM106.027 32.499C103.021 32.499 100.575 30.053 100.575 27.047C100.575 24.04 103.021 21.594 106.027 21.594C109.034 21.594 111.48 24.04 111.48 27.047C111.48 30.054 109.034 32.499 106.027 32.499ZM122.627 32.499C119.621 32.499 117.174 30.053 117.174 27.047C117.174 24.04 119.62 21.594 122.627 21.594C125.634 21.594 128.08 24.04 128.08 27.047C128.08 30.054 125.634 32.499 122.627 32.499Z" fill="white"/>
<path d="M122.632 31.0591C122.138 31.0591 121.737 30.658 121.737 30.164V28.4921C121.737 27.9981 122.138 27.597 122.632 27.597C123.126 27.597 123.527 27.9981 123.527 28.4921V30.164C123.527 30.658 123.126 31.0591 122.632 31.0591Z" fill="#311643"/>
<path d="M106.3 31.0591C105.805 31.0591 105.405 30.658 105.405 30.164V28.4921C105.405 27.9981 105.806 27.597 106.3 27.597C106.794 27.597 107.195 27.9981 107.195 28.4921V30.164C107.195 30.658 106.794 31.0591 106.3 31.0591Z" fill="#311643"/>
<path d="M112.691 41.6911C111.093 41.6911 110.005 41.0901 109.346 40.5431C108.515 39.8531 108.17 39.1001 108.155 39.0681C108.062 38.8611 108.154 38.6181 108.361 38.5251C108.567 38.4321 108.81 38.5241 108.903 38.7291C108.95 38.8311 110.085 41.2101 113.382 40.8291C113.608 40.8031 113.811 40.9641 113.837 41.1891C113.863 41.4141 113.702 41.6181 113.477 41.6441C113.201 41.6771 112.94 41.6911 112.691 41.6911Z" fill="#311643"/>
<path d="M149.422 241.303L134.536 234.904L135.299 238.593L116.988 232.843V238.09C116.988 239.935 117.953 241.608 119.47 242.548L121.045 247.05C121.181 247.439 121.548 247.7 121.961 247.7C122.497 247.7 122.931 247.266 122.931 246.73V243.8L135.446 247.699H148.106C149.947 247.699 151.439 246.207 151.439 244.366C151.439 243.033 150.646 241.829 149.422 241.303Z" fill="#2F3D6C"/>
<path d="M181.883 241.303L166.997 234.904L167.76 238.593L149.449 232.843V238.09C149.449 239.935 150.414 241.608 151.931 242.548L153.506 247.05C153.642 247.439 154.009 247.7 154.422 247.7C154.958 247.7 155.392 247.266 155.392 246.73V243.8L167.907 247.699H180.567C182.408 247.699 183.9 246.207 183.9 244.366C183.899 243.033 183.106 241.829 181.883 241.303Z" fill="#2F3D6C"/>
<path d="M116.988 225.864L116.997 232.842L135.3 238.593L134.536 234.904L133.016 234.128L134.345 225.864H116.988Z" fill="#FCD0B7"/>
<path d="M149.449 225.864L149.457 232.842L167.76 238.593L166.997 234.904L165.476 234.13L166.806 225.864H149.449Z" fill="#FCD0B7"/>
<path d="M103.859 126.897V127.552C103.846 144.03 117.201 157.395 133.68 157.395H147.533L149.45 225.863H166.807L179.605 144.227C181.032 135.124 173.994 126.896 164.78 126.896H103.859V126.897Z" fill="#79DA78"/>
<path d="M146.341 149.347L147.532 157.396H145.004L146.341 149.347Z" fill="#4A5EA3"/>
<path d="M76.628 139.334C77.497 149.548 86.0409 157.396 96.2919 157.396H115.072L116.989 225.864H134.346L147.009 145.091C148.507 135.534 141.119 126.898 131.446 126.898H130.057L126.073 114.989H80.3509L76.8749 134.137C76.5629 135.85 76.48 137.598 76.628 139.334Z" fill="#79DA78"/>
<path d="M103.316 65.226C106.398 65.226 108.863 62.258 110.525 59.252H92.9489C95.6299 62.25 99.3009 65.226 103.316 65.226Z" fill="white"/>
<path d="M136.348 65.683L135.132 63.79C133.553 61.332 131.331 59.376 128.729 58.119C128.004 57.77 127.251 57.475 126.472 57.238L112.93 53.114C112.93 53.604 112.078 56.444 110.526 59.251C108.864 62.257 106.399 65.225 103.317 65.225C99.3019 65.225 95.6308 62.249 92.9498 59.251C90.2298 56.209 88.5309 53.144 88.5309 53.144L76.4299 58.751C71.4769 61.046 67.8308 65.461 66.5128 70.759L61.1189 87.996C60.1959 90.946 59.7258 94.019 59.7258 97.11V98.538C59.7258 102.243 62.7299 105.246 66.4349 105.246H79.3359L80.3508 114.988H126.072L137.596 67.625L136.348 65.683Z" fill="#283628"/>
<path d="M103.767 69.5021C101.225 69.5021 98.6389 68.7281 96.0789 67.2031C94.0469 65.9921 92.0268 64.3071 90.0748 62.1941C86.7618 58.6071 84.7429 54.9461 84.7229 54.9101L85.4028 54.5951C85.4228 54.6311 87.3799 58.1801 90.6339 61.7001C92.5359 63.7581 94.4989 65.3951 96.4679 66.5671C98.9079 68.0201 101.364 68.7561 103.767 68.7561C106.035 68.7561 108.078 67.9991 109.839 66.5071C111.264 65.2991 112.514 63.6081 113.553 61.4811C115.339 57.8261 115.885 54.0541 115.89 54.0171L116.632 54.2431C116.61 54.3981 116.064 58.0331 114.231 61.7931C113.147 64.0171 111.834 65.7921 110.329 67.0701C108.428 68.6831 106.22 69.5021 103.767 69.5021Z" fill="white"/>
<path d="M179.617 144.137C178.101 145.77 175.935 146.792 173.53 146.792C168.942 146.792 165.221 143.072 165.221 138.483C165.221 133.894 168.941 130.175 173.53 130.175C173.746 130.175 173.961 130.183 174.173 130.199C178.166 133.413 180.451 138.608 179.617 144.137Z" fill="#4A5EA3"/>
<path d="M147.2 142.431C145.795 145.028 143.048 146.791 139.889 146.791C135.3 146.791 131.581 143.071 131.581 138.482C131.581 133.893 135.301 130.174 139.889 130.174C140.336 130.174 140.774 130.21 141.201 130.278C144.829 133.148 147.143 137.565 147.2 142.431Z" fill="#4A5EA3"/>
<path d="M65.7589 105.247H115.926V98.9151L66.4479 93.2221C62.8669 92.8101 59.7258 95.6101 59.7258 99.2151C59.7258 102.546 62.4269 105.247 65.7589 105.247Z" fill="#FCD0B7"/>
<path d="M178.686 67.625H127.427C125.372 67.625 123.565 68.986 122.998 70.962L114.136 101.834H94.5649C93.6399 101.834 92.8509 102.554 92.8189 103.478C92.7839 104.449 93.561 105.247 94.524 105.247H119.08H171.11L181.021 70.723C181.465 69.171 180.3 67.625 178.686 67.625Z" fill="#4A5EA3"/>
<path d="M151.063 87.7621C151.19 86.3206 150.492 85.0816 149.504 84.9948C148.517 84.9079 147.613 86.0061 147.486 87.4476C147.36 88.8891 148.058 90.128 149.045 90.2149C150.033 90.3017 150.936 89.2035 151.063 87.7621Z" fill="#2F3D6C"/>
<path d="M80.3499 114.988L78.5209 125.064L127.122 118.129L126.071 114.988H80.3499Z" fill="#4A5EA3"/>
<path d="M77.7189 61.6291C77.7189 64.6691 75.2549 67.1331 72.2139 67.1331C70.8249 67.1331 69.5559 66.6181 68.5869 65.7691C70.4239 62.7361 73.1379 60.2771 76.4279 58.7521L76.7969 58.5811C77.3799 59.4531 77.7189 60.5021 77.7189 61.6291Z" fill="#79DA78"/>
<path d="M136.348 65.683C135.495 66.227 134.482 66.541 133.396 66.541C130.356 66.541 127.891 64.077 127.891 61.037C127.891 59.966 128.198 58.965 128.728 58.119C131.331 59.375 133.553 61.331 135.131 63.79L136.348 65.683Z" fill="#79DA78"/>
<path d="M118.745 85.7731C118.532 86.5141 109.222 96.5401 109.222 96.5401L84.4149 95.2881L115.003 98.8081L118.745 85.7731Z" fill="#FF78BA"/>
<path d="M20.7559 110.655L16.2219 147.321L3.80591 247.699H0.440918L12.8209 147.607L17.3909 110.655H20.7559Z" fill="#D3D2FF"/>
<path d="M65.2949 247.699H61.9288L49.1699 144.542L44.9789 110.655H48.3439L52.5009 144.261L65.2949 247.699Z" fill="#D3D2FF"/>
<path d="M17.3909 110.655H20.7559L16.2219 147.321L12.8209 147.607L17.3909 110.655Z" fill="#AEC3FF"/>
<path d="M48.3439 110.655L52.5009 144.261L49.1699 144.542L44.9789 110.655H48.3439Z" fill="#AEC3FF"/>
<path d="M234.07 247.699H230.704L216.203 130.456L213.754 110.655H217.12L219.534 130.175L234.07 247.699Z" fill="#D3D2FF"/>
<path d="M219.534 130.175L216.203 130.456L213.754 110.655H217.12L219.534 130.175Z" fill="#AEC3FF"/>
<path d="M226.038 105.247H54.4019V110.655H226.038C227.532 110.655 228.742 109.444 228.742 107.951C228.742 106.457 227.531 105.247 226.038 105.247Z" fill="#D3D2FF"/>
<path d="M19.4648 105.247H9.32288C7.82988 105.247 6.6189 106.458 6.6189 107.951C6.6189 109.444 7.82988 110.655 9.32288 110.655H19.4648H54.4019V105.247H19.4648Z" fill="#86A2E2"/>
<path d="M222.178 99.202V97.823C222.178 97.397 221.832 97.051 221.406 97.051H189.417C187.803 97.051 186.495 98.359 186.495 99.973V102.324C186.495 103.938 187.803 105.246 189.417 105.246H221.406C221.832 105.246 222.178 104.9 222.178 104.474V103.095C222.178 102.669 221.832 102.323 221.406 102.323H190.592C189.943 102.323 189.417 101.797 189.417 101.148C189.417 100.499 189.943 99.973 190.592 99.973H221.406C221.832 99.973 222.178 99.628 222.178 99.202Z" fill="#6277D7"/>
<path d="M220.796 99.9729V102.324H190.592C189.943 102.324 189.417 101.798 189.417 101.149C189.417 100.5 189.943 99.9739 190.592 99.9739H220.796V99.9729Z" fill="#D3D2FF"/>
<path d="M219.892 91.006V89.627C219.892 89.201 219.546 88.855 219.12 88.855H191.702C190.088 88.855 188.78 90.163 188.78 91.777V94.128C188.78 95.742 190.088 97.05 191.702 97.05H219.12C219.546 97.05 219.892 96.704 219.892 96.278V94.9C219.892 94.474 219.546 94.128 219.12 94.128H192.877C192.228 94.128 191.702 93.602 191.702 92.953C191.702 92.304 192.228 91.778 192.877 91.778H219.12C219.547 91.778 219.892 91.432 219.892 91.006Z" fill="#F9A0C0"/>
<path d="M218.876 91.778V94.1289H192.878C192.229 94.1289 191.703 93.6029 191.703 92.9539C191.703 92.3049 192.229 91.7789 192.878 91.7789H218.876V91.778Z" fill="#2F3D6C"/>
<path d="M34.5328 92.0961H49.6279C50.3729 92.0961 50.9498 92.7461 50.8608 93.4861L49.5838 104.153C49.5088 104.777 48.9798 105.247 48.3508 105.247H35.8088C35.1798 105.247 34.6509 104.777 34.5759 104.153L33.2988 93.4861C33.2108 92.7461 33.7878 92.0961 34.5328 92.0961Z" fill="#D3D2FF"/>
<path d="M47.2618 87.7431V82.8921L44.3599 88.4061V79.451L42.0798 85.0891L39.7999 79.451V88.4061L36.8978 82.8921V87.7431L32.6699 80.9441L34.5328 92.0961H42.0798H49.6279L51.4908 80.9441L47.2618 87.7431Z" fill="#6277D7"/>
<path d="M65.8408 103.219C68.0527 103.219 69.8458 101.426 69.8458 99.214C69.8458 97.0021 68.0527 95.209 65.8408 95.209C63.6289 95.209 61.8359 97.0021 61.8359 99.214C61.8359 101.426 63.6289 103.219 65.8408 103.219Z" fill="#F9AFAB"/>
</svg>
