<svg width="1675" height="244" viewBox="0 0 1675 244" fill="none" xmlns="http://www.w3.org/2000/svg">
<path d="M331.523 243.627C319.513 243.627 308.629 242.295 298.996 239.51C289.613 236.725 282.107 231.034 276.603 222.437C271.348 213.597 268.721 200.399 268.721 182.962V61.8754C268.721 48.1926 271.348 37.7791 276.603 30.7561C282.107 23.3698 289.488 18.4052 298.996 15.6202C308.629 12.8352 319.638 11.5033 331.898 11.5033C344.409 11.5033 355.293 13.0774 364.425 16.1046C373.558 18.8896 380.814 23.9752 385.943 31.2404C391.197 38.3846 393.824 48.5559 393.824 61.9965V106.072H356.168V60.6646C356.168 52.7939 355.168 47.1028 353.041 43.5913C350.914 39.8376 348.037 37.2948 344.409 35.9628C340.781 34.752 336.527 34.0254 331.898 34.0254C327.144 34.0254 323.016 34.6309 319.388 35.9628C315.76 37.1737 312.883 39.7165 310.756 43.5913C308.629 47.1028 307.628 52.7939 307.628 60.6646V195.434C307.628 203.063 308.629 208.754 310.756 212.508C312.883 216.261 315.76 218.804 319.388 220.136C323.016 221.347 327.27 222.074 331.898 222.074C336.902 222.074 341.031 221.468 344.409 220.136C348.037 218.925 350.914 216.382 353.041 212.508C355.168 208.754 356.168 203.063 356.168 195.434V155.233H393.824V182.599C393.824 200.52 391.197 213.84 385.943 222.437C380.689 231.034 373.558 236.725 364.425 239.51C355.293 242.295 344.409 243.627 331.523 243.627ZM496.034 242.174C481.647 242.174 470.137 240.237 461.505 236.483C452.873 232.487 446.743 226.069 443.115 217.472C439.487 208.633 437.611 197.008 437.611 182.599V99.7757C437.611 88.6357 439.362 79.312 442.74 71.6835C446.368 64.055 452.498 58.2428 461.13 54.247C469.762 50.2511 481.397 48.1926 496.034 48.1926C510.671 48.1926 522.18 50.2511 530.562 54.247C538.944 58.2428 544.949 64.055 548.577 71.6835C552.205 79.312 554.082 88.6357 554.082 99.7757V182.478C554.082 196.887 552.08 208.512 548.202 217.351C544.574 225.948 538.444 232.245 529.812 236.362C521.43 240.237 510.17 242.174 496.034 242.174ZM496.034 220.499C502.289 220.499 506.918 219.41 509.795 217.109C512.923 214.566 514.924 211.297 515.675 207.301C516.676 202.942 517.301 198.462 517.301 193.618V96.7485C517.301 91.6628 516.801 87.1826 515.675 83.0657C514.799 79.0698 512.923 75.8004 509.795 73.2576C506.918 70.7148 502.289 69.5039 496.034 69.5039C489.528 69.5039 484.649 70.7148 481.522 73.2576C478.394 75.8004 476.393 79.0698 475.642 83.0657C474.891 87.0615 474.516 91.6628 474.516 96.7485V193.497C474.516 198.34 474.891 202.821 475.642 207.18C476.393 211.176 478.394 214.566 481.522 216.988C484.649 219.41 489.528 220.499 496.034 220.499ZM645.907 241.811C637.025 241.811 629.394 240.963 623.139 239.147C616.883 237.088 611.629 234.061 607.501 230.065C603.623 225.706 600.745 220.015 598.869 212.992C596.992 205.606 596.116 196.645 596.116 185.99V93.7213C596.116 85.8507 596.992 79.1909 598.869 73.6209C600.995 67.8087 603.873 63.0863 607.501 59.5748C611.129 55.8211 615.758 53.0361 621.262 51.2198C626.767 49.4035 632.897 48.5559 639.652 48.5559C650.411 48.5559 658.293 50.13 663.547 53.1572C669.052 56.1844 673.055 59.6959 675.682 63.8128V0H712.587V239.147H687.442L683.563 221.347C682.312 224.132 680.186 227.159 677.308 230.429C674.431 233.456 670.553 236.12 665.549 238.42C660.544 240.6 654.039 241.811 645.907 241.811ZM653.789 221.226C659.043 221.226 663.047 220.378 665.924 218.562C669.051 216.503 671.303 213.961 672.554 210.934C673.805 207.664 674.681 204.153 674.931 200.278C675.432 196.524 675.682 192.528 675.682 188.532V82.3391C675.182 80.765 674.056 79.1909 672.554 77.3746C671.303 75.3161 669.051 73.742 665.924 72.41C663.047 70.957 659.168 70.2304 654.164 70.2304C648.91 70.2304 644.907 70.957 642.029 72.5311C639.152 73.742 637.025 75.8004 635.774 78.5854C634.523 81.1283 633.647 84.0344 633.397 87.3037C633.147 90.5731 633.022 94.0846 633.022 97.9594V193.618C633.022 198.704 633.272 203.305 633.772 207.664C634.523 211.66 636.4 215.05 639.277 217.472C642.404 220.015 647.284 221.226 653.789 221.226ZM817.674 242.174C804.288 242.174 793.279 240.842 784.397 238.057C775.765 235.03 769.259 229.339 764.755 220.984C760.627 212.629 758.5 200.157 758.5 183.447V95.2954C758.5 77.3746 763.254 65.0237 772.637 58.485C782.02 51.7041 796.657 48.1926 816.548 48.1926C836.44 48.1926 851.077 51.583 860.459 58.485C869.842 65.0237 874.596 77.3746 874.596 95.2954V145.304H795.406V197.251C795.406 206.574 796.782 213.234 799.659 216.988C802.787 220.742 808.667 222.679 817.299 222.679C825.18 222.679 830.56 220.863 833.437 217.351C836.315 213.597 837.691 206.817 837.691 197.251V169.522H874.596V182.841C874.596 199.309 872.344 211.781 867.966 220.378C863.837 228.975 857.457 234.788 849.2 237.815C840.693 240.721 830.184 242.174 817.674 242.174ZM795.281 128.715H837.691V91.4207C837.691 82.8235 836.315 76.7691 833.437 73.2576C830.56 69.5039 824.93 67.5665 816.548 67.5665C808.416 67.5665 802.787 69.5039 799.659 73.2576C796.782 76.7691 795.406 82.8235 795.406 91.4207V128.715H795.281ZM918.257 239.147V0H952.786V70.2304C955.163 63.0863 959.541 57.8796 966.172 54.247C972.927 50.4933 981.059 48.5559 990.442 48.5559C1003.2 48.5559 1012.84 50.7354 1019.09 54.9735C1025.6 59.3326 1029.97 65.2659 1031.98 72.7733C1034.1 80.1596 1035.1 88.6357 1035.1 98.2015V239.026H998.198V104.014C998.198 100.987 998.073 97.9594 997.823 94.9322C997.573 91.6628 996.697 88.7567 995.07 86.2139C993.819 83.4289 991.693 81.1283 988.815 79.4331C985.938 77.6167 981.81 76.7691 976.305 76.7691C971.551 76.7691 967.673 77.4957 964.545 79.0698C961.418 80.6439 959.041 82.3391 957.539 84.3976C956.289 86.4561 955.413 88.2724 955.163 90.0887V239.268H918.257V239.147ZM1136.56 242.174C1122.18 242.174 1110.67 240.237 1102.03 236.483C1093.4 232.487 1087.27 226.069 1083.64 217.472C1080.02 208.633 1078.14 197.008 1078.14 182.599V99.7757C1078.14 88.6357 1079.89 79.312 1083.27 71.6835C1086.9 64.055 1093.03 58.2428 1101.66 54.247C1110.29 50.2511 1121.93 48.1926 1136.56 48.1926C1151.2 48.1926 1162.71 50.2511 1171.09 54.247C1179.47 58.2428 1185.48 64.055 1189.11 71.6835C1192.73 79.312 1194.61 88.6357 1194.61 99.7757V182.478C1194.61 196.887 1192.61 208.512 1188.73 217.351C1185.1 225.948 1178.97 232.245 1170.34 236.362C1161.96 240.237 1150.7 242.174 1136.56 242.174ZM1136.56 220.499C1142.82 220.499 1147.45 219.41 1150.32 217.109C1153.45 214.566 1155.45 211.297 1156.2 207.301C1157.2 202.942 1157.83 198.462 1157.83 193.618V96.7485C1157.83 91.6628 1157.33 87.1826 1156.2 83.0657C1155.45 79.0698 1153.45 75.6794 1150.32 73.2576C1147.45 70.7148 1142.82 69.5039 1136.56 69.5039C1130.06 69.5039 1125.18 70.7148 1122.05 73.2576C1118.92 75.8004 1116.92 79.0698 1116.17 83.0657C1115.42 87.0615 1115.04 91.6628 1115.04 96.7485V193.497C1115.04 198.34 1115.42 202.821 1116.17 207.18C1116.92 211.176 1118.92 214.566 1122.05 216.988C1125.18 219.41 1130.06 220.499 1136.56 220.499ZM1283.31 241.811C1270.3 241.811 1260.41 239.631 1253.91 235.393C1247.65 231.034 1243.4 225.222 1241.4 217.957C1239.52 210.328 1238.65 201.731 1238.65 192.165V51.2198H1275.55V189.38C1275.55 193.981 1275.8 198.219 1276.3 202.336C1277.05 206.332 1278.93 209.844 1281.81 212.629C1284.93 215.172 1289.94 216.382 1296.69 216.382C1301.7 216.382 1305.58 215.656 1308.45 214.082C1311.33 212.508 1313.58 210.812 1315.08 208.754C1316.71 206.453 1317.71 204.274 1318.21 202.336V51.2198H1355.12V239.026H1323.72L1320.96 217.351C1318.59 223.89 1314.21 229.581 1307.58 234.424C1301.32 239.389 1293.32 241.811 1283.31 241.811ZM1458.2 242.9C1445.44 242.9 1434.93 241.568 1426.8 238.783C1418.92 235.998 1412.92 232.245 1408.79 227.401C1404.91 222.316 1402.28 216.382 1400.91 209.602C1399.65 202.821 1398.9 195.434 1398.9 187.564V173.881H1436.18V194.345C1436.18 199.672 1436.43 204.637 1436.94 209.117C1437.44 213.476 1439.19 216.867 1442.06 219.41C1445.19 221.952 1450.45 223.163 1457.7 223.163C1464.21 223.163 1468.96 222.074 1471.84 219.773C1474.72 217.23 1476.59 214.203 1477.34 210.691C1478.09 206.938 1478.47 203.305 1478.47 200.036V186.716C1478.47 180.42 1477.22 175.213 1474.59 171.096C1472.21 167.1 1468.46 163.588 1463.21 160.803C1458.2 158.018 1452.07 155.112 1444.82 152.085C1437.19 149.3 1430.18 146.031 1423.67 142.277C1417.42 138.523 1412.29 133.68 1408.41 127.868C1404.78 121.813 1402.91 114.185 1402.91 105.103V93.7213C1402.91 78.8276 1407.16 67.4454 1415.79 59.5748C1424.42 51.462 1439.56 47.4661 1461.33 47.4661C1475.47 47.4661 1486.6 49.4035 1494.61 53.1572C1502.99 56.6687 1508.87 62.3598 1512.25 70.2304C1515.88 77.8589 1517.75 87.667 1517.75 99.7757V114.185H1482.1V94.0846C1482.1 83.9133 1480.35 77.0113 1476.97 73.2576C1473.84 69.2617 1468.59 67.2033 1461.33 67.2033C1453.2 67.2033 1447.69 69.2617 1444.82 73.2576C1441.94 77.2535 1440.56 82.2181 1440.56 88.0302V100.987C1440.56 107.767 1442.31 113.216 1445.69 117.333C1449.32 121.329 1454.07 124.841 1459.83 127.626C1465.58 130.168 1472.09 132.832 1479.47 135.617C1486.48 138.16 1492.98 141.187 1498.74 144.699C1504.74 148.21 1509.49 152.933 1512.87 158.745C1516.25 164.557 1518 172.307 1518 181.873V192.165C1518 201.973 1516.38 210.812 1513.25 218.32C1510.12 225.948 1504.24 232.003 1495.61 236.483C1486.85 240.721 1474.34 242.9 1458.2 242.9ZM1617.46 242.174C1604.07 242.174 1593.06 240.842 1584.18 238.057C1575.55 235.03 1569.04 229.339 1564.54 220.984C1560.41 212.629 1558.29 200.157 1558.29 183.447V95.2954C1558.29 77.3746 1563.04 65.0237 1572.42 58.485C1581.8 51.7041 1596.44 48.1926 1616.33 48.1926C1636.22 48.1926 1650.86 51.583 1660.24 58.485C1669.63 65.0237 1674.38 77.3746 1674.38 95.2954V145.304H1595.19V197.251C1595.19 206.574 1596.69 213.234 1599.44 216.988C1602.57 220.742 1608.45 222.679 1617.08 222.679C1624.97 222.679 1630.34 220.863 1633.22 217.351C1636.1 213.597 1637.48 206.817 1637.48 197.251V169.522H1674.38V182.841C1674.38 199.309 1672.13 211.781 1667.75 220.378C1663.62 228.975 1657.24 234.788 1648.98 237.815C1640.48 240.721 1630.09 242.174 1617.46 242.174ZM1595.19 128.715H1637.6V91.4207C1637.6 82.8235 1636.1 76.7691 1633.35 73.2576C1630.47 69.5039 1624.84 67.5665 1616.46 67.5665C1608.33 67.5665 1602.7 69.5039 1599.57 73.2576C1596.69 76.7691 1595.32 82.8235 1595.32 91.4207V128.715H1595.19Z" fill="#1E293B"/>
<path fill-rule="evenodd" clip-rule="evenodd" d="M219.557 147.968L115.096 148.089V243.143H219.557V147.968Z" fill="#ED6623"/>
<path fill-rule="evenodd" clip-rule="evenodd" d="M103.335 148.332H0V243.385H104.336L103.335 148.332Z" fill="#4595D1"/>
<path fill-rule="evenodd" clip-rule="evenodd" d="M116.346 23.249C116.346 52.9153 116.346 104.377 116.346 136.586H207.421H219.556V92.9951C219.556 78.5857 213.301 65.024 201.041 52.9153C192.034 43.9548 179.648 35.7209 164.261 28.5768C151.375 22.5225 138.615 18.1633 129.107 15.2572C123.602 13.4409 119.224 12.3512 116.346 11.6246V19.2531V21.6749V23.249Z" fill="#4AB749"/>
<path fill-rule="evenodd" clip-rule="evenodd" d="M13.1363 136.586H104.211C104.211 90.3311 104.211 103.045 104.211 136.586C104.211 123.146 104.211 23.1279 104.211 23.1279V11.6246C101.334 12.3512 96.7053 13.562 91.0757 15.2572C81.5678 18.1633 68.9324 22.5225 56.1718 28.5768C40.7841 35.842 28.3989 44.0759 19.3915 52.9153C7.13138 65.024 0.876221 78.5857 0.876221 92.9951V136.586H13.1363Z" fill="#F0596A"/>
<path fill-rule="evenodd" clip-rule="evenodd" d="M150.374 162.741C163.51 164.436 167.764 169.28 167.764 176.666C167.764 178.724 167.013 181.146 167.013 183.447C167.013 188.532 169.515 190.47 175.02 190.47H176.896V198.583H175.02C169.515 198.583 167.013 200.52 167.013 205.606C167.013 207.785 167.764 210.328 167.764 212.387C167.764 219.773 163.51 224.616 150.374 226.311L148.873 219.288C155.754 217.714 157.63 215.656 157.63 211.297C157.63 208.875 156.755 206.453 156.755 204.153C156.755 198.704 160.007 195.798 165.387 194.466C160.007 193.134 156.755 190.228 156.755 184.779C156.755 182.478 157.63 180.056 157.63 177.635C157.63 173.275 155.754 171.338 148.873 169.643L150.374 162.741Z" fill="white"/>
<path fill-rule="evenodd" clip-rule="evenodd" d="M152.876 71.5627H162.884V62.239H152.876V71.5627ZM151.625 104.498L150.875 100.866C155.378 100.381 157.255 97.8386 156.879 94.5692H152.876V85.4877H162.884V93.2373C162.884 100.745 158.881 104.135 151.625 104.498Z" fill="white"/>
<path fill-rule="evenodd" clip-rule="evenodd" d="M51.9175 186.837L58.2978 191.56L57.0468 183.81H62.9266L61.6756 191.56L68.0558 186.837L70.9332 191.56L63.427 194.466L70.9332 197.372L68.0558 202.094L61.6756 197.372L62.9266 205.121H57.1719L58.4229 197.372L52.0426 202.094L48.915 197.372L56.4212 194.466L48.915 191.56L51.9175 186.837Z" fill="white"/>
<path fill-rule="evenodd" clip-rule="evenodd" d="M75.0624 66.1136V77.1326L50.6673 87.6671L75.0624 98.3228V109.463L39.6582 93.116V82.3393L75.0624 66.1136Z" fill="white"/>
</svg>
