<svg width="137" height="320" viewBox="0 0 137 320" fill="none" xmlns="http://www.w3.org/2000/svg">
<path d="M38.7766 20.3039C51.718 22.4611 67.8428 17.6444 69.8645 14.5767C74.5497 21.7167 76.9304 21.4932 76.9304 21.4932V26.8477L77.9882 25.7899C78.3145 25.0523 78.8325 24.3198 79.6076 24.3198C83.8687 24.3198 84.1662 36.1716 76.9946 36.8568C76.8532 37.3214 76.707 37.7554 76.5577 38.1489V57.119H60.3815V49.6577C59.294 49.9563 58.2519 50.1273 57.2949 50.1273C50.9172 50.1273 40.049 40.7491 38.8172 25.7899C38.743 22.9673 38.7766 20.3039 38.7766 20.3039Z" fill="#FCBEB7"/>
<path d="M58.4111 0C69.5669 0 71.7983 5.94965 71.7983 5.94965C76.5586 5.94965 83.8469 14.6517 79.4583 24.3197L79.4356 24.3424L76.9294 26.8486V21.4941C76.9294 21.4941 74.5497 21.7176 69.8636 14.5776C67.8418 17.6443 51.716 22.461 38.7756 20.3048C38.7756 20.3048 38.742 22.9682 38.8161 25.7908C38.8161 25.7937 38.8161 25.7967 38.8161 25.7997C33.9836 11.8173 43.6852 0 58.4111 0Z" fill="#311643"/>
<path d="M63.208 29.8748C63.7013 29.8748 64.1007 29.4754 64.1007 28.9821V27.3152C64.1007 26.8219 63.7013 26.4225 63.208 26.4225C62.7146 26.4225 62.3153 26.8219 62.3153 27.3152V28.9821C62.3163 29.4744 62.7156 29.8748 63.208 29.8748Z" fill="#311643"/>
<path d="M46.66 29.8748C47.1534 29.8748 47.5528 29.4754 47.5528 28.9821V27.3152C47.5528 26.8219 47.1534 26.4225 46.66 26.4225C46.1667 26.4225 45.7673 26.8219 45.7673 27.3152V28.9821C45.7673 29.4744 46.1677 29.8748 46.66 29.8748Z" fill="#311643"/>
<path d="M56.6464 40.2922C58.2391 40.2922 59.3236 39.6931 59.9811 39.1474C60.8095 38.4593 61.1536 37.7089 61.1684 37.6773C61.2613 37.4716 61.1694 37.2294 60.9638 37.1365C60.7581 37.0436 60.5169 37.1355 60.423 37.3402C60.3765 37.441 59.2455 39.8137 55.9583 39.4331C55.7339 39.4074 55.5311 39.5676 55.5045 39.792C55.4778 40.0164 55.6389 40.2191 55.8634 40.2458C56.1372 40.2774 56.3982 40.2922 56.6464 40.2922Z" fill="#311643"/>
<path d="M69.1339 37.2739C66.6965 37.2739 64.7206 35.298 64.7206 32.8606C64.7206 30.4232 66.6965 28.4473 69.1339 28.4473C71.5713 28.4473 73.5472 30.4232 73.5472 32.8606C73.5472 35.298 71.5713 37.2739 69.1339 37.2739Z" fill="#F49795"/>
<path d="M39.2768 29.1968C39.8364 32.1607 40.7737 34.8627 41.959 37.2681C44.2932 37.1524 46.1489 35.2235 46.1489 32.8607C46.1489 30.4237 44.1736 28.4484 41.7366 28.4484C40.8261 28.4484 39.9788 28.7242 39.2768 29.1968Z" fill="#F49795"/>
<path d="M46.6601 19.4397C49.882 19.4397 52.5425 21.8896 52.8776 25.0236C54.6295 24.199 56.1758 24.6459 56.9914 25.0206C57.3275 21.8876 59.987 19.4397 63.208 19.4397C66.6564 19.4397 69.4612 22.2455 69.4612 25.6929C69.4612 29.1403 66.6554 31.946 63.208 31.946C59.8377 31.946 57.0824 29.2648 56.9607 25.9232C56.4427 25.6296 54.7788 24.8693 52.9083 25.9282C52.7837 29.2668 50.0293 31.946 46.661 31.946C43.2126 31.946 40.4079 29.1403 40.4079 25.6929C40.4079 22.2455 43.2117 19.4397 46.6601 19.4397ZM63.208 31.1284C66.2055 31.1284 68.6436 28.6904 68.6436 25.6929C68.6436 22.6953 66.2055 20.2573 63.208 20.2573C60.2104 20.2573 57.7724 22.6953 57.7724 25.6929C57.7724 28.6904 60.2114 31.1284 63.208 31.1284ZM46.6601 31.1284C49.6576 31.1284 52.0956 28.6904 52.0956 25.6929C52.0956 22.6953 49.6576 20.2573 46.6601 20.2573C43.6635 20.2573 41.2245 22.6953 41.2245 25.6929C41.2245 28.6904 43.6635 31.1284 46.6601 31.1284Z" fill="white"/>
<path d="M60.3824 57.1189V49.6576C64.0404 48.6522 68.2046 46.1895 71.3346 43.8414L60.3824 57.1189Z" fill="#F9AFAB"/>
<path d="M21.7155 298.059H38.8478L67.6539 171.382L97.165 298.059H114.297L98.3345 155.941H35.0415L21.7155 298.059Z" fill="#283628"/>
<path d="M37.4874 304.947V317.054C37.4874 318.466 36.3425 319.611 34.9308 319.611H0.591175C0.263935 319.611 3.8147e-06 319.346 3.8147e-06 319.02V316.689C3.8147e-06 315.669 0.583309 314.74 1.50077 314.297L20.8633 304.948H37.4874V304.947Z" fill="#2F3D6C"/>
<path d="M99.0286 304.947V317.054C99.0286 318.466 100.173 319.611 101.585 319.611H135.924C136.25 319.611 136.515 319.346 136.515 319.02V316.689C136.515 315.669 135.932 314.74 135.014 314.297L115.652 304.948H99.0286V304.947Z" fill="#2F3D6C"/>
<path d="M38.8478 298.059L37.5576 304.947H20.8633L21.7155 298.059H38.8478Z" fill="#FCBEB7"/>
<path d="M114.297 298.059L115.652 304.947H99.0286L97.165 298.059H114.297Z" fill="#FCBEB7"/>
<path d="M98.6766 158.989L34.4147 162.619L35.0415 155.941H98.3345" fill="#4A5EA3"/>
<path d="M39.2333 94.6914L35.0405 155.942H98.3336L94.4551 112.296L95.3152 89.0047L98.6005 92.2791L113.206 81.0511L105.358 68.2619C103.417 65.0993 100.611 62.5575 97.2728 60.9371L79.2705 52.1994L78.6121 51.8801L76.5567 50.8826C76.5567 50.8826 67.1625 57.0478 60.4091 50.8826L56.8016 52.2429L56.068 52.5188L36.9881 59.7112C34.0004 60.8372 31.5684 63.0834 30.209 65.9742L22.1169 83.1875L39.2333 94.6914Z" fill="#79DA78"/>
<path d="M56.8025 52.242C59.898 54.4397 63.5876 55.6241 67.4611 55.6241C71.5412 55.6241 75.4198 54.3092 78.6121 51.8792L79.2705 52.1985C75.916 54.8431 71.7983 56.2786 67.4601 56.2786C63.3009 56.2786 59.3444 54.9598 56.068 52.5178L56.8025 52.242Z" fill="white"/>
<path d="M98.0587 63.0232C98.0587 66.0277 100.495 68.4627 103.499 68.4627C104.129 68.4627 104.732 68.3559 105.295 68.1592C103.558 65.3672 101.144 63.0667 98.2851 61.4661C98.1378 61.9594 98.0587 62.4814 98.0587 63.0232Z" fill="#2B2F3E"/>
<path d="M94.7715 220.668C90.2423 220.668 86.5707 216.997 86.5707 212.468C86.5707 207.938 90.2423 204.267 94.7715 204.267C99.3006 204.267 102.972 207.938 102.972 212.468C102.972 216.997 99.3006 220.668 94.7715 220.668Z" fill="#2B2F3E"/>
<path d="M40.0618 220.668C35.5326 220.668 31.861 216.997 31.861 212.468C31.861 207.938 35.5326 204.267 40.0618 204.267C44.591 204.267 48.2626 207.938 48.2626 212.468C48.2626 216.997 44.591 220.668 40.0618 220.668Z" fill="#2B2F3E"/>
<path d="M66.949 147.831L118.495 162.54C119.343 162.782 120.227 162.291 120.468 161.443L129.708 129.063C129.95 128.214 129.459 127.331 128.611 127.089L77.0648 112.38C76.2166 112.138 75.3327 112.629 75.0915 113.478L65.8516 145.858C65.6094 146.706 66.1007 147.59 66.949 147.831Z" fill="#2B2F3E"/>
<path d="M48.3595 93.2194H62.1966C62.6563 93.2194 63.03 92.8466 63.03 92.3859V66.5141C63.03 66.0544 62.6573 65.6807 62.1966 65.6807H48.3595C47.8998 65.6807 47.5261 66.0534 47.5261 66.5141V92.3859C47.5261 92.8456 47.8988 93.2194 48.3595 93.2194Z" fill="#2B2F3E"/>
<path d="M10.5824 110.455L22.1189 83.1856L30.9218 89.072L43.2888 78.2345L45.8167 69.568C45.8523 69.2912 46.0698 69.0737 46.3456 69.0371C47.5577 68.877 48.5968 69.8982 48.4584 71.1123L48.0244 74.9087L52.6136 75.5177C53.8514 75.6818 55.11 75.5731 56.3013 75.1984L60.5712 73.8558C61.8535 73.4524 63.2168 74.18 63.5965 75.4683L65.2445 75.0866C66.0493 74.9008 66.8551 75.3892 67.0627 76.188L67.0745 76.2325C67.2525 76.9196 66.9332 77.6383 66.3044 77.9666C66.6405 79.2805 65.8605 80.6221 64.5515 80.979L64.514 80.9888C64.8669 82.3126 64.2134 83.6977 62.9668 84.2672L59.7359 85.7432C58.5208 86.2979 57.1891 86.551 55.8554 86.4778L48.5157 85.8807L23.593 118.456L23.5881 118.461C21.3834 121.092 17.6255 121.997 14.4045 120.491C10.6329 118.724 8.94027 114.284 10.5824 110.455Z" fill="#FCBEB7"/>
<path d="M30.0222 66.3737C30.6114 66.6021 31.251 66.7277 31.9204 66.7277C34.826 66.7277 37.1819 64.3717 37.1819 61.4651C37.1819 60.863 37.0801 60.2837 36.8942 59.7449C33.9501 60.8828 31.5555 63.1122 30.211 65.9723L30.0222 66.3737Z" fill="#2B2F3E"/>
<path d="M29.3479 90.4501L15.9933 97.6632L12.9749 104.799L29.3479 90.4501Z" fill="#F9AFAB"/>
<path d="M98.3672 156.799L117.273 123.854L113.273 122.713L98.3672 156.799Z" fill="#2F3D6C"/>
<path d="M18.1624 119.308C15.2969 119.308 12.974 116.985 12.974 114.119C12.974 111.254 15.2969 108.931 18.1624 108.931C21.0278 108.931 23.3508 111.254 23.3508 114.119C23.3508 116.985 21.0278 119.308 18.1624 119.308Z" fill="#F9AFAB"/>
<path d="M116.757 99.3499C116.757 102.028 118.67 104.26 121.206 104.752L122.132 102.597C123.063 100.432 122.92 97.9549 121.746 95.9124L120.689 94.0735C118.415 94.7497 116.757 96.8565 116.757 99.3499Z" fill="#F9AFAB"/>
<path d="M84.2651 150.833L90.7022 147.96C91.1481 147.761 91.4941 147.389 91.6602 146.93L92.5935 144.361L89.3409 145.159L88.3038 147.386C87.9548 148.135 87.0729 148.473 86.3126 148.145L87.6671 144.056C87.9202 143.406 88.4086 142.874 89.0354 142.565L95.8323 139.223L107.558 101.191L98.5995 92.2791L113.205 81.051L121.745 95.9133C122.918 97.9569 123.062 100.433 122.131 102.598L98.4295 156.8L93.7255 157.017C93.16 157.043 92.6261 156.757 92.3355 156.272L91.8233 155.417L89.3478 155.62C88.8178 155.663 88.3028 155.43 87.9854 155.002L87.4031 154.216L87.0561 154.308C86.108 154.558 85.1124 154.125 84.6487 153.262L82.9305 153.834C82.5429 152.639 83.1193 151.345 84.2651 150.833Z" fill="#FCBEB7"/>
</svg>
