<svg width="154" height="102" viewBox="0 0 154 102" fill="none" xmlns="http://www.w3.org/2000/svg">
<path d="M32.9796 60.9642C33.9779 63.0772 36.5413 64.0137 38.3795 62.5706C39.7204 61.5179 40.9176 60.2843 41.9347 58.9C43.7911 56.3735 44.9888 53.4243 45.4197 50.3189C45.8506 47.2135 45.5011 44.0496 44.4029 41.1131C43.8011 39.5042 42.985 37.9912 41.9813 36.6132C40.6055 34.7242 37.884 34.9273 36.3481 36.6887V36.6887C34.8122 38.45 35.1012 41.1151 36.1119 43.2223C36.2457 43.5012 36.3673 43.7866 36.4762 44.0777C37.082 45.6975 37.2748 47.4427 37.0371 49.1557C36.7994 50.8687 36.1387 52.4955 35.1147 53.8892C34.9307 54.1396 34.736 54.3811 34.5313 54.6131C32.9851 56.3654 31.9813 58.8511 32.9796 60.9642V60.9642Z" fill="#0A59DB" fill-opacity="0.92"/>
<circle cx="29.4186" cy="48.0788" r="5.5" transform="rotate(91.1584 29.4186 48.0788)" fill="#0A59DB" fill-opacity="0.92"/>
<path d="M41.0902 32.7217C38.9978 33.7625 38.1133 36.3442 39.5933 38.1529C40.6729 39.4722 41.9304 40.6443 43.335 41.6332C45.8985 43.4381 48.8713 44.5759 51.9848 44.944C55.0983 45.312 58.2544 44.8987 61.1682 43.7413C62.7646 43.1071 64.2607 42.2606 65.6182 41.2293C67.479 39.8155 67.2209 37.0987 65.4289 35.5987V35.5987C63.6368 34.0988 60.9781 34.4416 58.8918 35.4947C58.6156 35.6341 58.3327 35.7614 58.0439 35.8761C56.4367 36.5146 54.6957 36.7426 52.9783 36.5396C51.2608 36.3366 49.621 35.7089 48.2069 34.7133C47.9528 34.5344 47.7074 34.3446 47.4713 34.1446C45.6881 32.6342 43.1826 31.6809 41.0902 32.7217V32.7217Z" fill="#19A3E8" fill-opacity="0.89"/>
<circle cx="53.9009" cy="28.9009" r="5.5" transform="rotate(-180 53.9009 28.9009)" fill="#19A3E8" fill-opacity="0.89"/>
<path d="M61.3107 68.6792C63.4031 67.6384 64.2875 65.0567 62.8076 63.248C61.728 61.9287 60.4705 60.7566 59.0659 59.7677C56.5024 57.9628 53.5296 56.825 50.4161 56.4569C47.3026 56.0889 44.1465 56.5022 41.2327 57.6596C39.6363 58.2938 38.1402 59.1404 36.7827 60.1716C34.9219 61.5854 35.18 64.3022 36.972 65.8022V65.8022C38.7641 67.3021 41.4228 66.9593 43.5091 65.9063C43.7853 65.7668 44.0682 65.6395 44.357 65.5248C45.9642 64.8863 47.7052 64.6583 49.4226 64.8613C51.1401 65.0644 52.7799 65.692 54.194 66.6876C54.4481 66.8665 54.6935 67.0563 54.9296 67.2563C56.7128 68.7667 59.2183 69.72 61.3107 68.6792V68.6792Z" fill="#090A09" fill-opacity="0.88"/>
<circle cx="48.5" cy="72.5" r="5.5" fill="black" fill-opacity="0.88"/>
<path d="M73.976 64.408C72.3213 64.408 70.814 64.1927 69.454 63.762C68.094 63.3087 66.9493 62.7193 66.02 61.994L67.652 59.274C68.468 59.954 69.386 60.5093 70.406 60.94C71.426 61.3707 72.616 61.586 73.976 61.586C75.608 61.586 76.9 61.246 77.852 60.566C78.804 59.886 79.28 58.968 79.28 57.812C79.28 57.1547 79.144 56.5767 78.872 56.078C78.6 55.5567 78.0673 55.058 77.274 54.582C76.5033 54.0833 75.3587 53.5507 73.84 52.984C72.208 52.3493 70.9047 51.7147 69.93 51.08C68.9553 50.4227 68.2527 49.686 67.822 48.87C67.414 48.0313 67.21 47.0453 67.21 45.912C67.21 44.7787 67.516 43.7587 68.128 42.852C68.7627 41.9227 69.6807 41.186 70.882 40.642C72.106 40.0753 73.5793 39.792 75.302 39.792C76.7073 39.792 77.9653 39.9393 79.076 40.234C80.2093 40.506 81.3087 40.9027 82.374 41.424L81.184 44.178C80.4133 43.7247 79.5067 43.3507 78.464 43.056C77.444 42.7387 76.3673 42.58 75.234 42.58C73.738 42.58 72.5593 42.8747 71.698 43.464C70.8367 44.0533 70.406 44.8127 70.406 45.742C70.406 46.3313 70.5307 46.8527 70.78 47.306C71.0293 47.7593 71.5167 48.2013 72.242 48.632C72.99 49.0627 74.1007 49.55 75.574 50.094C77.342 50.7513 78.736 51.4427 79.756 52.168C80.7987 52.8933 81.5353 53.6867 81.966 54.548C82.3967 55.3867 82.612 56.35 82.612 57.438C82.612 58.9113 82.238 60.1693 81.49 61.212C80.7647 62.2547 79.7447 63.048 78.43 63.592C77.138 64.136 75.6533 64.408 73.976 64.408ZM93.1302 64.408C91.4529 64.408 89.9455 64.0227 88.6082 63.252C87.2709 62.4587 86.2169 61.3707 85.4462 59.988C84.6982 58.5827 84.3242 56.9733 84.3242 55.16C84.3242 53.256 84.7095 51.6127 85.4802 50.23C86.2509 48.8473 87.3049 47.782 88.6422 47.034C89.9795 46.286 91.4755 45.912 93.1302 45.912C94.7849 45.912 96.2695 46.286 97.5842 47.034C98.9215 47.782 99.9755 48.8473 100.746 50.23C101.54 51.59 101.936 53.2107 101.936 55.092C101.936 56.9733 101.551 58.6167 100.78 60.022C100.01 61.4047 98.9555 62.4813 97.6182 63.252C96.3035 64.0227 94.8075 64.408 93.1302 64.408ZM93.1302 61.688C94.9209 61.688 96.3149 61.0873 97.3122 59.886C98.3095 58.662 98.8082 57.0867 98.8082 55.16C98.8082 53.9813 98.5589 52.9047 98.0602 51.93C97.5615 50.9327 96.8815 50.1393 96.0202 49.55C95.1815 48.938 94.2182 48.632 93.1302 48.632C91.3395 48.632 89.9455 49.2213 88.9482 50.4C87.9509 51.5787 87.4522 53.1427 87.4522 55.092C87.4522 56.2707 87.7015 57.37 88.2002 58.39C88.6989 59.3873 89.3675 60.192 90.2062 60.804C91.0675 61.3933 92.0422 61.688 93.1302 61.688Z" fill="#0B5BE0"/>
<path d="M111.86 64.408C110.183 64.408 108.709 64.0227 107.44 63.252C106.193 62.4587 105.23 61.3707 104.55 59.988C103.87 58.5827 103.53 56.9733 103.53 55.16C103.53 53.46 103.87 51.9073 104.55 50.502C105.253 49.0967 106.25 47.986 107.542 47.17C108.834 46.3313 110.353 45.912 112.098 45.912C113.095 45.912 113.968 46.0027 114.716 46.184C115.487 46.3653 116.223 46.626 116.926 46.966L116.008 49.55C115.373 49.2327 114.761 49.006 114.172 48.87C113.605 48.7113 112.971 48.632 112.268 48.632C110.681 48.632 109.344 49.21 108.256 50.366C107.191 51.4993 106.658 53.0747 106.658 55.092C106.658 56.316 106.885 57.4267 107.338 58.424C107.791 59.4213 108.415 60.2147 109.208 60.804C110.024 61.3933 110.976 61.688 112.064 61.688C112.925 61.688 113.662 61.5973 114.274 61.416C114.886 61.212 115.543 60.9287 116.246 60.566L117.198 63.15C116.495 63.5353 115.702 63.8413 114.818 64.068C113.957 64.2947 112.971 64.408 111.86 64.408ZM119.397 64V46.32H122.457V64H119.397ZM120.927 43.294C120.338 43.294 119.828 43.0787 119.397 42.648C118.989 42.2173 118.785 41.7187 118.785 41.152C118.785 40.4947 118.978 39.9733 119.363 39.588C119.748 39.2027 120.27 39.01 120.927 39.01C121.516 39.01 122.015 39.2253 122.423 39.656C122.854 40.064 123.069 40.5627 123.069 41.152C123.069 41.7867 122.876 42.308 122.491 42.716C122.106 43.1013 121.584 43.294 120.927 43.294ZM132.725 64.408C131.025 64.408 129.676 63.8527 128.679 62.742C127.704 61.6087 127.217 59.9993 127.217 57.914V49.618H124.157V46.966H127.285L127.931 41.39H130.277V46.966H135.173V49.618H130.277V58.152C130.277 59.4667 130.549 60.3847 131.093 60.906C131.66 61.4273 132.328 61.688 133.099 61.688C133.666 61.688 134.198 61.5973 134.697 61.416C135.218 61.2347 135.694 61.0193 136.125 60.77L136.975 63.218C136.522 63.49 135.91 63.7507 135.139 64C134.368 64.272 133.564 64.408 132.725 64.408ZM138.801 71.888C138.121 71.888 137.52 71.82 136.999 71.684C136.5 71.548 136.103 71.3893 135.809 71.208L136.489 68.658C136.761 68.8167 137.101 68.9527 137.509 69.066C137.917 69.1793 138.37 69.236 138.869 69.236C139.821 69.236 140.671 68.93 141.419 68.318C142.167 67.706 142.881 66.5047 143.561 64.714L144.343 62.674H142.711L135.809 47.136L138.529 45.912L145.125 60.634L150.259 46.048L153.081 47.136L146.587 64.884C145.929 66.6973 145.215 68.114 144.445 69.134C143.674 70.154 142.824 70.868 141.895 71.276C140.965 71.684 139.934 71.888 138.801 71.888Z" fill="black"/>
</svg>
