<svg width="220" height="233" viewBox="0 0 220 233" fill="none" xmlns="http://www.w3.org/2000/svg">
<path fill-rule="evenodd" clip-rule="evenodd" d="M219.557 136.968L115.096 137.089V232.143H219.557V136.968Z" fill="#ED6623"/>
<path fill-rule="evenodd" clip-rule="evenodd" d="M103.335 137.332H0V232.385H104.336L103.335 137.332Z" fill="#4595D1"/>
<path fill-rule="evenodd" clip-rule="evenodd" d="M116.346 12.249C116.346 41.9153 116.346 93.3773 116.346 125.586H207.421H219.556V81.9951C219.556 67.5858 213.301 54.024 201.041 41.9153C192.034 32.9549 179.648 24.721 164.261 17.5769C151.375 11.5225 138.615 7.16339 129.107 4.2573C123.602 2.441 119.224 1.35122 116.346 0.624695V8.25317V10.6749V12.249Z" fill="#4AB749"/>
<path fill-rule="evenodd" clip-rule="evenodd" d="M13.1363 125.586H104.211C104.211 79.3312 104.211 92.0453 104.211 125.586C104.211 112.146 104.211 12.128 104.211 12.128V0.624695C101.334 1.35122 96.7053 2.56209 91.0757 4.2573C81.5678 7.16339 68.9324 11.5225 56.1718 17.5769C40.7841 24.8421 28.3989 33.076 19.3915 41.9153C7.13138 54.024 0.876221 67.5858 0.876221 81.9951V125.586H13.1363Z" fill="#F0596A"/>
<path fill-rule="evenodd" clip-rule="evenodd" d="M150.374 151.741C163.51 153.436 167.764 158.28 167.764 165.666C167.764 167.724 167.013 170.146 167.013 172.447C167.013 177.532 169.515 179.47 175.02 179.47H176.896V187.583H175.02C169.515 187.583 167.013 189.52 167.013 194.606C167.013 196.785 167.764 199.328 167.764 201.387C167.764 208.773 163.51 213.616 150.374 215.312L148.873 208.289C155.754 206.714 157.63 204.656 157.63 200.297C157.63 197.875 156.755 195.453 156.755 193.153C156.755 187.704 160.007 184.798 165.387 183.466C160.007 182.134 156.755 179.228 156.755 173.779C156.755 171.478 157.63 169.056 157.63 166.635C157.63 162.276 155.754 160.338 148.873 158.643L150.374 151.741Z" fill="white"/>
<path fill-rule="evenodd" clip-rule="evenodd" d="M152.876 60.5628H162.884V51.2391H152.876V60.5628ZM151.625 93.4985L150.875 89.8659C155.378 89.3815 157.255 86.8387 156.879 83.5694H152.876V74.4878H162.884V82.2374C162.884 89.7448 158.881 93.1352 151.625 93.4985Z" fill="white"/>
<path fill-rule="evenodd" clip-rule="evenodd" d="M51.9175 175.837L58.2978 180.56L57.0468 172.81H62.9266L61.6756 180.56L68.0558 175.837L70.9332 180.56L63.427 183.466L70.9332 186.372L68.0558 191.094L61.6756 186.372L62.9266 194.121H57.1719L58.4229 186.372L52.0426 191.094L48.915 186.372L56.4212 183.466L48.915 180.56L51.9175 175.837Z" fill="white"/>
<path fill-rule="evenodd" clip-rule="evenodd" d="M75.0624 55.1136V66.1326L50.6673 76.6671L75.0624 87.3228V98.4628L39.6582 82.116V71.3393L75.0624 55.1136Z" fill="white"/>
</svg>
