<svg width="24" height="24" viewBox="0 0 24 24" fill="none" xmlns="http://www.w3.org/2000/svg">
<path d="M12.2327 15.073C12.4379 15.073 12.605 14.9081 12.6077 14.7029L12.7083 6.9048C12.711 6.69582 12.5423 6.52496 12.3333 6.52496H11.5646C11.3558 6.52496 11.1872 6.69561 11.1897 6.90446L11.2831 14.7025C11.2855 14.9079 11.4527 15.073 11.658 15.073H12.2327Z" fill="black"/>
<path d="M11.3426 15.93C11.2009 16.0936 11.13 16.2996 11.13 16.545C11.13 16.7904 11.2009 16.9964 11.3426 17.16C11.4897 17.3181 11.705 17.4 11.9885 17.4C12.2721 17.4 12.4874 17.3181 12.6344 17.16C12.7815 16.9964 12.855 16.7904 12.855 16.545C12.855 16.2996 12.7815 16.0936 12.6344 15.93C12.4874 15.7609 12.2721 15.675 11.9885 15.675C11.705 15.675 11.4897 15.7609 11.3426 15.93Z" fill="black"/>
<path fill-rule="evenodd" clip-rule="evenodd" d="M21 12C21 16.9706 16.9706 21 12 21C7.02944 21 3 16.9706 3 12C3 7.02944 7.02944 3 12 3C16.9706 3 21 7.02944 21 12ZM19.5 12C19.5 16.1421 16.1421 19.5 12 19.5C7.85786 19.5 4.5 16.1421 4.5 12C4.5 7.85786 7.85786 4.5 12 4.5C16.1421 4.5 19.5 7.85786 19.5 12Z" fill="black"/>
</svg>
